<svg width="100%" height="100%"  viewBox="0 0 13 14" fill="none" xmlns="http://www.w3.org/2000/svg">
  <path d="M7.62499 5.28813V4.95025C7.62499 4.90588 7.61737 4.86195 7.60253 4.82095C7.5877 4.77998 7.56597 4.74273 7.53857 4.71133C7.51114 4.67996 7.47861 4.65508 7.44281 4.63809C7.40699 4.62112 7.36861 4.61239 7.32986 4.61239H6.14922C5.75784 4.61239 5.38249 4.4344 5.10574 4.11759C4.82899 3.80077 4.67351 3.37109 4.6735 2.92304C4.6735 2.70119 4.71168 2.48151 4.78584 2.27656C4.86 2.07158 4.9687 1.88536 5.10574 1.72848C5.24276 1.57162 5.40544 1.44718 5.58449 1.36228C5.76353 1.27739 5.95543 1.23369 6.14922 1.23369H7.32977C7.36853 1.23372 7.40693 1.22498 7.44274 1.20801C7.47856 1.19104 7.51112 1.16615 7.53852 1.13477C7.56594 1.1034 7.58768 1.06615 7.60253 1.02515C7.61737 0.984154 7.62499 0.94021 7.62499 0.895829V0.557953H6.14929C5.87797 0.557953 5.60933 0.619126 5.35867 0.737983C5.10802 0.856841 4.88026 1.03105 4.68842 1.25067C4.49658 1.4703 4.34441 1.73101 4.24058 2.01797C4.13676 2.30491 4.08333 2.61246 4.08333 2.92304C4.08333 3.55028 4.30099 4.15187 4.68843 4.5954C5.07587 5.03894 5.60136 5.28813 6.14929 5.28813H7.62499Z" fill="url(#paint0_linear_1518_5547)"/>
  <path d="M5.26376 2.92304C5.26376 3.19187 5.35705 3.44966 5.5231 3.63973C5.68913 3.82983 5.91433 3.93661 6.14916 3.93661H7.62498C7.78153 3.93661 7.93165 4.00781 8.04234 4.13453C8.15304 4.26125 8.21524 4.43314 8.21524 4.61235V5.2881H8.80552V4.61239C8.80552 4.25396 8.68115 3.9102 8.45976 3.65674C8.23835 3.40329 7.93808 3.26092 7.62498 3.26092H6.14919C6.07092 3.26092 5.99585 3.22531 5.94049 3.16196C5.88515 3.09859 5.85405 3.01265 5.85405 2.92304C5.85405 2.83343 5.88515 2.74749 5.94049 2.68413C5.99585 2.62076 6.07092 2.58516 6.14919 2.58516H7.62498C7.93808 2.58516 8.23835 2.44279 8.45976 2.18933C8.68115 1.93589 8.80552 1.59213 8.80552 1.23369V0.557953H8.21515V1.23369C8.21515 1.4129 8.15297 1.58476 8.04231 1.71146C7.93163 1.83819 7.78151 1.90939 7.62498 1.90942H6.14919C6.03292 1.90941 5.91778 1.93563 5.81035 1.98656C5.70292 2.0375 5.60531 2.11217 5.5231 2.20629C5.44087 2.30041 5.37564 2.41216 5.33115 2.53514C5.28665 2.65811 5.26376 2.78993 5.26376 2.92304Z" fill="url(#paint1_linear_1518_5547)"/>
  <defs>
    <linearGradient id="paint0_linear_1518_5547" x1="4.61812" y1="2.92304" x2="9.16208" y2="2.92304" gradientUnits="userSpaceOnUse">
      <stop stop-color="#817696"/>
      <stop offset="1" stop-color="#817698"/>
    </linearGradient>
    <linearGradient id="paint1_linear_1518_5547" x1="4.61563" y1="2.92303" x2="9.16326" y2="2.92303" gradientUnits="userSpaceOnUse">
      <stop stop-color="#8575D2"/>
      <stop offset="1" stop-color="#9083D5"/>
    </linearGradient>
  </defs>
</svg>
