<svg width="20" height="20" viewBox="0 0 20 20" fill="none" xmlns="http://www.w3.org/2000/svg">
<path d="M12.4948 10L19.478 3.01684C19.8094 2.68601 19.9958 2.23707 19.9962 1.76879C19.9966 1.3005 19.811 0.851233 19.4802 0.519814C19.1494 0.188395 18.7004 0.00197318 18.2321 0.00155962C17.7638 0.00114607 17.3146 0.186774 16.9832 0.517609L10 7.50077L3.01684 0.517609C2.68542 0.18619 2.23592 0 1.76723 0C1.29853 0 0.849028 0.18619 0.517609 0.517609C0.18619 0.849028 0 1.29853 0 1.76723C0 2.23592 0.18619 2.68542 0.517609 3.01684L7.50077 10L0.517609 16.9832C0.18619 17.3146 0 17.7641 0 18.2328C0 18.7015 0.18619 19.151 0.517609 19.4824C0.849028 19.8138 1.29853 20 1.76723 20C2.23592 20 2.68542 19.8138 3.01684 19.4824L10 12.4992L16.9832 19.4824C17.3146 19.8138 17.7641 20 18.2328 20C18.7015 20 19.151 19.8138 19.4824 19.4824C19.8138 19.151 20 18.7015 20 18.2328C20 17.7641 19.8138 17.3146 19.4824 16.9832L12.4948 10Z" fill="white"/>
</svg>
