<?xml version="1.0" encoding="utf-8"?>
<!-- Generator: Adobe Illustrator 23.0.3, SVG Export Plug-In . SVG Version: 6.00 Build 0)  -->
<svg version="1.1" id="Layer_1" xmlns="http://www.w3.org/2000/svg" xmlns:xlink="http://www.w3.org/1999/xlink" x="0px" y="0px"
	 viewBox="0 0 32 32" style="enable-background:new 0 0 32 32;" xml:space="preserve">
<g>
	<g>
		<path d="M30,29H2c-0.5527344,0-1-0.4477539-1-1V4c0-0.5522461,0.4472656-1,1-1h28c0.5527344,0,1,0.4477539,1,1v24
			C31,28.5522461,30.5527344,29,30,29z M3,27h26V5H3V27z"/>
	</g>
	<g>
		<path d="M25,15h-6.78125c-0.5527344,0-1-0.4477539-1-1s0.4472656-1,1-1H25c0.5527344,0,1,0.4477539,1,1S25.5527344,15,25,15z"/>
	</g>
	<g>
		<path d="M21.609375,19H18.21875c-0.5527344,0-1-0.4477539-1-1s0.4472656-1,1-1h3.390625c0.5527344,0,1,0.4477539,1,1
			S22.1621094,19,21.609375,19z"/>
	</g>
	<g>
		<g>
			<circle cx="11.6315794" cy="12.5263157" r="2.5263157"/>
		</g>
		<g>
			<path d="M14.975728,22H8.2874298C7.5764017,22,7,21.4235973,7,20.7125702v-0.0000057
				c0-2.5579472,2.0736265-4.6315746,4.6315746-4.6315746h0.0000086c2.5579481,0,4.6315756,2.0736275,4.6315756,4.6315746v0.0000057
				C16.2631588,21.4235973,15.6867561,22,14.975728,22z"/>
		</g>
	</g>
</g>
</svg>
